<svg id="sw-js-blob-svg" viewBox="16 16 76 71" xmlns="http://www.w3.org/2000/svg">
    <defs>
        <linearGradient id="sw-gradient" x1="0" x2="1" y1="1" y2="0">
            <stop id="stop1" stop-color="rgba(275, 150, 155, 1)" offset="0%"></stop>
            <stop id="stop2" stop-color="rgba(271, 151, 141, 1)" offset="100%"></stop>
        </linearGradient>
    </defs>
    <path fill="url(#sw-gradient)"
        d="M28.2,-31.1C35.6,-27.4,40.1,-17.6,41.5,-7.6C42.9,2.4,41.3,12.7,35.9,19.4C30.4,26.2,21.2,29.5,12.2,32.1C3.3,34.7,-5.4,36.6,-13.1,34.5C-20.9,32.4,-27.7,26.2,-30.9,18.8C-34.1,11.4,-33.6,2.8,-31.7,-5.2C-29.9,-13.2,-26.7,-20.6,-21.2,-24.6C-15.6,-28.6,-7.8,-29.3,1.3,-30.8C10.4,-32.3,20.8,-34.8,28.2,-31.1Z"
        width="100%" height="100%" transform="translate(50 50)" style="transition: all 0.3s ease 0s;" stroke-width="0">
    </path>
</svg>