<svg id="sw-js-blob-svg" viewBox="13 17 75 73" xmlns="http://www.w3.org/2000/svg">
    <defs>
        <linearGradient id="sw-gradient" x1="0" x2="1" y1="1" y2="0">
            <stop id="stop1" stop-color="rgba(84, 208, 187, 1)" offset="0%"></stop>
            <stop id="stop2" stop-color="rgba(123, 255, 242, 1)" offset="100%"></stop>
        </linearGradient>
    </defs>
    <path fill="url(#sw-gradient)"
        d="M21.6,-24.9C28.3,-20.2,34.1,-13.6,36.7,-5.6C39.2,2.5,38.3,12.1,34,19.7C29.7,27.2,21.8,32.8,13.1,36.1C4.3,39.3,-5.3,40.2,-13.2,37C-21,33.8,-27,26.4,-31.1,18.4C-35.2,10.4,-37.5,1.7,-35.6,-5.8C-33.7,-13.3,-27.7,-19.6,-21.1,-24.4C-14.5,-29.2,-7.3,-32.4,0.1,-32.5C7.5,-32.7,15,-29.7,21.6,-24.9Z"
        width="100%" height="100%" transform="translate(50 50)" style="transition: all 0.3s ease 0s;" stroke-width="0">
    </path>
</svg>