<svg id="sw-js-blob-svg" viewBox="13 6 78 83" xmlns="http://www.w3.org/2000/svg">
    <defs>
        <linearGradient id="sw-gradient" x1="0" x2="1" y1="1" y2="0">
            <stop id="stop1" stop-color="rgb(248,55, 117 )" offset="0%" style="--darkreader-inline-stopcolor: #a93a06;"
                data-darkreader-inline-stopcolor=""></stop>
            <stop id="stop2" stop-color="rgb(251,31, 168 )" offset="100%"
                style="--darkreader-inline-stopcolor: #b97403;" data-darkreader-inline-stopcolor=""></stop>
        </linearGradient>
    </defs>
    <path fill="url(#sw-gradient)"
        d="M21.7,-30.6C29,-24.7,36.1,-19.4,39.1,-12.2C42,-5.1,40.7,3.8,38.3,12.8C35.8,21.7,32.3,30.6,25.7,35C19.2,39.4,9.6,39.3,1,37.9C-7.6,36.5,-15.1,33.9,-20.7,29.1C-26.2,24.4,-29.7,17.6,-32.5,10.3C-35.3,2.9,-37.4,-5,-35.4,-11.6C-33.4,-18.3,-27.3,-23.7,-20.7,-29.9C-14.1,-36.1,-7.1,-43,0.1,-43.2C7.3,-43.3,14.5,-36.6,21.7,-30.6Z"
        width="100%" height="100%" transform="translate(50 50)" style="transition: all 0.3s ease 0s;" stroke-width="0"
        stroke="url(#sw-gradient)"></path>
</svg>