<svg id="sw-js-blob-svg" viewBox="15 11 76 77" xmlns="http://www.w3.org/2000/svg">
    <defs>
        <linearGradient id="sw-gradient" x1="0" x2="1" y1="1" y2="0">
            <stop id="stop1" stop-color="rgba( 117, 55,248, 1)" offset="0%"
                style="--darkreader-inline-stopcolor: #a93a06;" data-darkreader-inline-stopcolor=""></stop>
            <stop id="stop2" stop-color="rgba(168, 31,251, 1)" offset="100%"
                style="--darkreader-inline-stopcolor: #b97403;" data-darkreader-inline-stopcolor=""></stop>
        </linearGradient>
    </defs>
    <path fill="url(#sw-gradient)"
        d="M28.6,-33.4C35.8,-28,39.6,-17.8,40.6,-7.8C41.5,2.2,39.6,12,35,20.4C30.4,28.9,23,36,14.9,37.4C6.8,38.8,-2.1,34.4,-10.5,30.6C-18.9,26.7,-26.8,23.4,-30.9,17.3C-35.1,11.3,-35.4,2.5,-33.7,-5.7C-32,-13.9,-28.3,-21.6,-22.3,-27.2C-16.3,-32.9,-8.2,-36.6,1.3,-38.1C10.7,-39.6,21.3,-38.9,28.6,-33.4Z"
        width="100%" height="100%" transform="translate(50 50)" style="transition: all 0.3s ease 0s;" stroke-width="0">
    </path>
</svg>