<svg id="sw-js-blob-svg" viewBox="12 9 74 69" xmlns="http://www.w3.org/2000/svg">
    <defs>
        <linearGradient id="sw-gradient" x1="0" x2="1" y1="1" y2="0">
            <stop id="stop1" stop-color="rgba(117, 248, 55, 1)" offset="0%"
                style="--darkreader-inline-stopcolor: #a93a06;" data-darkreader-inline-stopcolor=""></stop>
            <stop id="stop2" stop-color="rgba(31, 251, 168, 1)" offset="100%"
                style="--darkreader-inline-stopcolor: #b97403;" data-darkreader-inline-stopcolor=""></stop>
        </linearGradient>
    </defs>
    <path fill="url(#sw-gradient)"
        d="M22.4,-31.4C29.2,-25.8,35.1,-19.6,35.3,-12.9C35.5,-6.2,29.9,0.8,26.2,7.3C22.5,13.8,20.5,19.7,16.5,23.1C12.4,26.4,6.2,27.3,-0.1,27.4C-6.3,27.5,-12.6,26.8,-18.4,23.9C-24.1,21.1,-29.2,16.1,-33,9.6C-36.7,3,-39,-5.2,-35.9,-10.7C-32.8,-16.2,-24.2,-18.9,-17.4,-24.5C-10.5,-30.1,-5.2,-38.6,1.3,-40.4C7.8,-42.1,15.5,-37.1,22.4,-31.4Z"
        width="100%" height="100%" transform="translate(50 50)" style="transition: all 0.3s ease 0s;" stroke-width="0">
    </path>
</svg>