<svg id="sw-js-blob-svg" viewBox="9 14 82 75" xmlns="http://www.w3.org/2000/svg">
    <defs>
        <linearGradient id="sw-gradient" x1="0" x2="1" y1="1" y2="0">
            <stop id="stop1" stop-color="rgba(128, 197, 155, 1)" offset="0%"></stop>
            <stop id="stop2" stop-color="rgba(111, 188, 181, 1)" offset="100%"></stop>
        </linearGradient>
    </defs>
    <path fill="url(#sw-gradient)"
        d="M25,-29.2C31.8,-24.1,36.3,-15.6,38.9,-6.1C41.5,3.5,42.3,14.1,38.1,22.6C34,31.1,24.9,37.4,16.1,37.9C7.3,38.3,-1.4,32.9,-10.9,29.6C-20.4,26.3,-30.8,25,-36.1,19.2C-41.4,13.4,-41.6,3,-38.7,-5.6C-35.7,-14.3,-29.7,-21.2,-22.7,-26.3C-15.7,-31.4,-7.9,-34.7,0.6,-35.4C9.1,-36.1,18.2,-34.3,25,-29.2Z"
        width="100%" height="100%" transform="translate(50 50)" style="transition: all 0.3s ease 0s;" stroke-width="0">
    </path>
</svg>