<svg id="sw-js-blob-svg" viewBox="10 15 81 74" xmlns="http://www.w3.org/2000/svg">
    <defs>
        <linearGradient id="sw-gradient" x1="0" x2="1" y1="1" y2="0">
            <stop id="stop1" stop-color="#dd7146" offset="0%"></stop>
            <stop id="stop2" stop-color="#fa9357" offset="100%"></stop>
        </linearGradient>
    </defs>
    <path fill="url(#sw-gradient)"
        d="M20.7,-22.2C28.3,-18.2,37.1,-13.1,39.4,-6C41.8,1.1,37.7,10.3,32.4,17.9C27.1,25.6,20.4,31.8,12.5,35C4.5,38.2,-4.7,38.3,-13.7,35.9C-22.7,33.4,-31.4,28.3,-35.9,20.7C-40.3,13.1,-40.4,3,-39,-7.2C-37.7,-17.4,-34.8,-27.7,-28,-31.8C-21.2,-35.9,-10.6,-33.8,-2.1,-31.4C6.5,-28.9,13,-26.1,20.7,-22.2Z"
        width="100%" height="100%" transform="translate(50 50)" style="transition: all 0.3s ease 0s;" stroke-width="0">
    </path>
</svg>